<svg width="108" height="108" viewBox="0 0 108 108" fill="none" xmlns="http://www.w3.org/2000/svg">
<path d="M88.5625 53.4434C88.4805 54.0039 88.3438 54.5508 88.1387 54.9746C87.7695 55.7266 87.4141 55.7949 86.0195 55.7266C84.2148 55.6445 81.6309 55.7266 78.8965 55.8359C78.8965 56.5879 78.9238 56.9434 78.9238 56.9434C79.1016 59.0078 80.0312 59.0762 80.4004 59.0762H86.2793C86.7988 59.0762 87.2773 59.0762 87.6465 58.8301C88.125 58.5156 88.3301 57.5996 88.5078 56C88.5352 55.7676 88.5488 55.4668 88.5625 55.1113V55.0977C88.5625 54.9883 88.5762 54.8516 88.5762 54.7012V54.5508C88.5762 54.1816 88.5762 53.7715 88.5625 53.4434Z" fill="#528AFF"/>
<path d="M19.4102 53.4434C19.4922 54.0039 19.6289 54.5508 19.834 54.9746C20.2031 55.7266 20.5586 55.7949 21.9531 55.7266C23.7578 55.6445 26.3418 55.7266 29.0762 55.8359C29.0762 56.5879 29.0488 56.9434 29.0488 56.9434C28.8711 59.0078 27.9414 59.0762 27.5723 59.0762H21.6934C21.1738 59.0762 20.7363 59.0762 20.3262 58.8301C19.834 58.543 19.6426 57.5996 19.4648 56C19.4375 55.7676 19.4238 55.4668 19.4102 55.1113V55.0977C19.4102 54.9883 19.3965 54.8516 19.3965 54.7012V54.5508C19.4102 54.1816 19.4102 53.7715 19.4102 53.4434Z" fill="#528AFF"/>
<path d="M89 40.5508C89 36.3535 88.4531 32.252 88.2344 31.8008C88.0703 31.4727 87.0176 30.6113 84.625 28.9844C82.2051 27.3301 82.2598 27.5762 81.8223 26.4961C82.2188 26.373 82.6016 26.1406 82.834 26.1133C83.3535 26.0586 83.3809 26.5508 84.4609 26.5508C85.541 26.5508 87.8789 26.2637 88.3574 25.7852C88.8359 25.3066 88.9863 25.1426 88.9863 24.7188C88.9863 24.2949 88.7402 23.4199 88.2754 22.9004C87.8105 22.3809 85.8281 22.1211 84.666 21.9707C83.5039 21.8203 83.3398 21.9707 83.0391 22.1621C82.5605 22.4629 82.5332 25.2109 82.5332 25.2109L81.3984 25.2383C80.6602 23.4199 79.6348 19.7559 78.0352 16.8711C76.2852 13.7266 74.4531 12.7422 73.6875 12.4961C72.9355 12.2637 72.252 12.0996 67.125 11.5801C61.8887 11.0332 57.7188 10.9648 54 10.9648C50.2812 10.9648 46.1113 11.0469 40.875 11.5801C35.748 12.1133 35.0645 12.2637 34.3125 12.4961C33.5605 12.7285 31.7148 13.7266 29.9648 16.8711C28.3652 19.7559 27.3398 23.4199 26.6016 25.2383L25.4668 25.2109C25.4668 25.2109 25.4531 22.4629 24.9609 22.1621C24.6602 21.9707 24.4961 21.8066 23.334 21.9707C22.1719 22.1348 20.1895 22.3809 19.7246 22.9004C19.2598 23.4199 19.0137 24.2949 19.0137 24.7188C19.0137 25.1426 19.1641 25.3203 19.6426 25.7852C20.1211 26.2637 22.459 26.5508 23.5391 26.5508C24.6191 26.5508 24.6465 26.0586 25.166 26.1133C25.3984 26.1406 25.7949 26.373 26.1777 26.4961C25.7266 27.5762 25.7949 27.3301 23.375 28.9844C20.9824 30.625 19.916 31.4727 19.7656 31.8008C19.5469 32.252 19 36.3535 19 40.5508C19 44.7481 19.3008 48.5215 19.3008 49.8613C19.3008 50.4219 19.3008 51.4063 19.4238 52.3496C19.5059 52.9102 19.6289 53.457 19.8477 53.8809C20.2168 54.6328 20.5586 54.7012 21.9668 54.6328C23.7715 54.5508 26.3828 54.6328 29.0762 54.7422C30.8809 54.8106 32.7266 54.8789 34.3672 54.9199C38.4688 55.002 37.2656 54.3184 39.0156 54.3457C40.7656 54.3731 47.6699 54.6602 53.9863 54.6602C60.3027 54.6602 67.2207 54.3731 68.957 54.3457C70.707 54.3184 69.5039 55.002 73.6055 54.9199C75.2461 54.8926 77.0918 54.8106 78.8965 54.7422C81.5898 54.6465 84.2148 54.5508 86.0059 54.6328C87.4141 54.7012 87.7559 54.6328 88.125 53.8809C88.3301 53.457 88.4668 52.9102 88.5488 52.3496C88.6855 51.4063 88.6719 50.4219 88.6719 49.8613C88.6992 48.5352 89 44.7481 89 40.5508ZM30.7852 19.8516C31.4414 18.3203 33.4102 15.2441 34.3672 14.6973C34.5996 14.5605 36.6367 13.918 41.7363 13.5762C46.4258 13.2617 51.6074 13.1387 54.0137 13.1387C56.4199 13.1387 61.6016 13.2617 66.291 13.5762C71.377 13.918 73.4414 14.5469 73.6602 14.6973C74.8906 15.5449 76.5859 18.3203 77.2422 19.8516C77.8984 21.3828 78.7734 24.3906 78.6094 24.8008C78.4453 25.2109 78.7734 25.416 76.5586 25.2383C74.3574 25.0742 60.5352 24.8965 54.0273 24.8965C47.5332 24.8965 33.7109 25.0742 31.4961 25.2383C29.2812 25.4023 29.6094 25.2109 29.4453 24.8008C29.2539 24.3906 30.1289 21.3965 30.7852 19.8516ZM35.8164 36.9688C34.832 37.2148 34.2441 37.7481 33.0137 37.7344C31.7832 37.7344 28.4609 37.1738 27.75 37.1465C27.0391 37.1191 26.4102 37.625 26.041 37.7207C25.6719 37.8164 24.9473 37.5566 23.8535 37.2148C22.7598 36.8731 22.1172 36.9688 21.7617 35.4785C21.3926 34.002 21.7617 31.8828 21.7617 31.8828C24.127 31.7734 26.4102 31.9922 30.6895 33.1953C34.9688 34.3984 37.3477 36.709 37.3477 36.709C37.3477 36.709 36.8008 36.7227 35.8164 36.9688ZM67.9727 47.7422C66.0176 48.002 57.8281 48.0703 54 48.0703C50.1719 48.0703 41.9824 47.9883 40.0273 47.7422C38.0312 47.4824 35.4336 45.0898 37.2246 43.1895C39.6445 40.6055 39.1934 40.6875 44.6895 39.9766C49.4473 39.3613 53.0566 39.334 54 39.334C54.9297 39.334 58.5527 39.375 63.3105 39.9766C68.8066 40.6875 68.3555 40.6055 70.7754 43.1895C72.5664 45.0898 69.9688 47.4824 67.9727 47.7422ZM86.2383 35.4922C85.8691 36.9688 85.2402 36.8867 84.1465 37.2285C83.0527 37.5703 82.3281 37.8164 81.959 37.7344C81.5898 37.6523 80.9609 37.1465 80.25 37.1602C79.5391 37.1875 76.2168 37.7481 74.9863 37.7481C73.7559 37.7481 73.168 37.2285 72.1836 36.9824C71.1992 36.7363 70.6523 36.7363 70.6523 36.7363C70.6523 36.7363 73.0176 34.4121 77.3105 33.2227C81.5898 32.0195 83.873 31.8008 86.2383 31.9102C86.2383 31.8828 86.6074 34.002 86.2383 35.4922Z" fill="#528AFF"/>
<path d="M11.7528 98L5.85283 90.25V98H1.57783V80.45H5.85283V88.15L11.7028 80.45H16.7278L9.92783 89.05L16.9778 98H11.7528ZM28.9995 92.1C28.9995 92.4467 28.9795 92.8133 28.9395 93.2H20.1795C20.2461 94.28 20.6128 95.1267 21.2795 95.74C21.9595 96.34 22.7795 96.64 23.7395 96.64C24.5261 96.64 25.1795 96.46 25.6995 96.1C26.2328 95.7267 26.6061 95.2333 26.8195 94.62H28.7795C28.4861 95.6733 27.8995 96.5333 27.0195 97.2C26.1395 97.8533 25.0461 98.18 23.7395 98.18C22.6995 98.18 21.7661 97.9467 20.9395 97.48C20.1261 97.0133 19.4861 96.3533 19.0195 95.5C18.5528 94.6333 18.3195 93.6333 18.3195 92.5C18.3195 91.3667 18.5461 90.3733 18.9995 89.52C19.4528 88.6667 20.0861 88.0133 20.8995 87.56C21.7261 87.0933 22.6728 86.86 23.7395 86.86C24.7795 86.86 25.6995 87.0867 26.4995 87.54C27.2995 87.9933 27.9128 88.62 28.3395 89.42C28.7795 90.2067 28.9995 91.1 28.9995 92.1ZM27.1195 91.72C27.1195 91.0267 26.9661 90.4333 26.6595 89.94C26.3528 89.4333 25.9328 89.0533 25.3995 88.8C24.8795 88.5333 24.2995 88.4 23.6595 88.4C22.7395 88.4 21.9528 88.6933 21.2995 89.28C20.6595 89.8667 20.2928 90.68 20.1995 91.72H27.1195ZM33.2218 88.82C33.5418 88.1933 33.9951 87.7067 34.5818 87.36C35.1818 87.0133 35.9085 86.84 36.7618 86.84V88.72H36.2818C34.2418 88.72 33.2218 89.8267 33.2218 92.04V98H31.4018V87.04H33.2218V88.82ZM38.1828 92.48C38.1828 91.36 38.4094 90.38 38.8628 89.54C39.3161 88.6867 39.9361 88.0267 40.7228 87.56C41.5228 87.0933 42.4094 86.86 43.3828 86.86C44.3428 86.86 45.1761 87.0667 45.8828 87.48C46.5894 87.8933 47.1161 88.4133 47.4628 89.04V87.04H49.3028V98H47.4628V95.96C47.1028 96.6 46.5628 97.1333 45.8428 97.56C45.1361 97.9733 44.3094 98.18 43.3628 98.18C42.3894 98.18 41.5094 97.94 40.7228 97.46C39.9361 96.98 39.3161 96.3067 38.8628 95.44C38.4094 94.5733 38.1828 93.5867 38.1828 92.48ZM47.4628 92.5C47.4628 91.6733 47.2961 90.9533 46.9628 90.34C46.6294 89.7267 46.1761 89.26 45.6028 88.94C45.0428 88.6067 44.4228 88.44 43.7428 88.44C43.0628 88.44 42.4428 88.6 41.8828 88.92C41.3228 89.24 40.8761 89.7067 40.5428 90.32C40.2094 90.9333 40.0428 91.6533 40.0428 92.48C40.0428 93.32 40.2094 94.0533 40.5428 94.68C40.8761 95.2933 41.3228 95.7667 41.8828 96.1C42.4428 96.42 43.0628 96.58 43.7428 96.58C44.4228 96.58 45.0428 96.42 45.6028 96.1C46.1761 95.7667 46.6294 95.2933 46.9628 94.68C47.2961 94.0533 47.4628 93.3267 47.4628 92.5Z" fill="#212121"/>
<path d="M58.3284 89.2C58.3284 87.4667 58.7034 85.925 59.4534 84.575C60.2034 83.2083 61.2451 82.15 62.5784 81.4C63.9284 80.6333 65.4534 80.25 67.1534 80.25C69.2368 80.25 71.0201 80.8 72.5034 81.9C73.9868 83 74.9784 84.5 75.4784 86.4H70.7784C70.4284 85.6667 69.9284 85.1083 69.2784 84.725C68.6451 84.3417 67.9201 84.15 67.1034 84.15C65.7868 84.15 64.7201 84.6083 63.9034 85.525C63.0868 86.4417 62.6784 87.6667 62.6784 89.2C62.6784 90.7333 63.0868 91.9583 63.9034 92.875C64.7201 93.7917 65.7868 94.25 67.1034 94.25C67.9201 94.25 68.6451 94.0583 69.2784 93.675C69.9284 93.2917 70.4284 92.7333 70.7784 92H75.4784C74.9784 93.9 73.9868 95.4 72.5034 96.5C71.0201 97.5833 69.2368 98.125 67.1534 98.125C65.4534 98.125 63.9284 97.75 62.5784 97C61.2451 96.2333 60.2034 95.175 59.4534 93.825C58.7034 92.475 58.3284 90.9333 58.3284 89.2ZM77.4064 92.48C77.4064 91.36 77.6331 90.38 78.0864 89.54C78.5397 88.6867 79.1597 88.0267 79.9464 87.56C80.7464 87.0933 81.6331 86.86 82.6064 86.86C83.5664 86.86 84.3997 87.0667 85.1064 87.48C85.8131 87.8933 86.3397 88.4133 86.6864 89.04V87.04H88.5264V98H86.6864V95.96C86.3264 96.6 85.7864 97.1333 85.0664 97.56C84.3597 97.9733 83.5331 98.18 82.5864 98.18C81.6131 98.18 80.7331 97.94 79.9464 97.46C79.1597 96.98 78.5397 96.3067 78.0864 95.44C77.6331 94.5733 77.4064 93.5867 77.4064 92.48ZM86.6864 92.5C86.6864 91.6733 86.5197 90.9533 86.1864 90.34C85.8531 89.7267 85.3997 89.26 84.8264 88.94C84.2664 88.6067 83.6464 88.44 82.9664 88.44C82.2864 88.44 81.6664 88.6 81.1064 88.92C80.5464 89.24 80.0997 89.7067 79.7664 90.32C79.4331 90.9333 79.2664 91.6533 79.2664 92.48C79.2664 93.32 79.4331 94.0533 79.7664 94.68C80.0997 95.2933 80.5464 95.7667 81.1064 96.1C81.6664 96.42 82.2864 96.58 82.9664 96.58C83.6464 96.58 84.2664 96.42 84.8264 96.1C85.3997 95.7667 85.8531 95.2933 86.1864 94.68C86.5197 94.0533 86.6864 93.3267 86.6864 92.5ZM93.422 88.82C93.742 88.1933 94.1953 87.7067 94.782 87.36C95.382 87.0133 96.1087 86.84 96.962 86.84V88.72H96.482C94.442 88.72 93.422 89.8267 93.422 92.04V98H91.602V87.04H93.422V88.82ZM102.943 98.18C102.103 98.18 101.35 98.04 100.683 97.76C100.016 97.4667 99.4896 97.0667 99.1029 96.56C98.7163 96.04 98.5029 95.4467 98.4629 94.78H100.343C100.396 95.3267 100.65 95.7733 101.103 96.12C101.57 96.4667 102.176 96.64 102.923 96.64C103.616 96.64 104.163 96.4867 104.563 96.18C104.963 95.8733 105.163 95.4867 105.163 95.02C105.163 94.54 104.95 94.1867 104.523 93.96C104.096 93.72 103.436 93.4867 102.543 93.26C101.73 93.0467 101.063 92.8333 100.543 92.62C100.036 92.3933 99.5963 92.0667 99.2229 91.64C98.8629 91.2 98.6829 90.6267 98.6829 89.92C98.6829 89.36 98.8496 88.8467 99.1829 88.38C99.5163 87.9133 99.9896 87.5467 100.603 87.28C101.216 87 101.916 86.86 102.703 86.86C103.916 86.86 104.896 87.1667 105.643 87.78C106.39 88.3933 106.79 89.2333 106.843 90.3H105.023C104.983 89.7267 104.75 89.2667 104.323 88.92C103.91 88.5733 103.35 88.4 102.643 88.4C101.99 88.4 101.47 88.54 101.083 88.82C100.696 89.1 100.503 89.4667 100.503 89.92C100.503 90.28 100.616 90.58 100.843 90.82C101.083 91.0467 101.376 91.2333 101.723 91.38C102.083 91.5133 102.576 91.6667 103.203 91.84C103.99 92.0533 104.63 92.2667 105.123 92.48C105.616 92.68 106.036 92.9867 106.383 93.4C106.743 93.8133 106.93 94.3533 106.943 95.02C106.943 95.62 106.776 96.16 106.443 96.64C106.11 97.12 105.636 97.5 105.023 97.78C104.423 98.0467 103.73 98.18 102.943 98.18Z" fill="#528AFF"/>
</svg>
