<svg width="27" height="26" viewBox="0 0 27 26" fill="none" xmlns="http://www.w3.org/2000/svg">
<g clip-path="url(#clip0_42_30786)">
<path fill-rule="evenodd" clip-rule="evenodd" d="M23.1159 4.02701C20.6794 1.70776 17.4391 0.429862 13.9869 0.428558C6.87373 0.428558 1.08447 5.93256 1.08163 12.6979C1.08068 14.8604 1.67496 16.9714 2.80423 18.8321L0.973419 25.1905L7.8147 23.4842C9.6996 24.4617 11.8219 24.9768 13.9818 24.9777H13.9871C21.0995 24.9777 26.8893 19.473 26.8922 12.7077C26.8935 9.42909 25.5525 6.34625 23.1159 4.02701ZM13.9871 22.9053H13.9827C12.058 22.9046 10.1702 22.413 8.52334 21.4838L8.13163 21.2628L4.07197 22.2753L5.15559 18.512L4.90052 18.1261C3.82681 16.5024 3.25969 14.6256 3.26054 12.6986C3.26289 7.07558 8.07473 2.5009 13.9913 2.5009C16.8563 2.50193 19.5494 3.56414 21.5746 5.49182C23.5997 7.41949 24.7144 9.98184 24.7133 12.7069C24.7108 18.3303 19.8991 22.9053 13.9871 22.9053ZM19.8706 15.2673C19.5482 15.1139 17.9628 14.3721 17.6672 14.2698C17.3717 14.1675 17.1567 14.1164 16.9417 14.4233C16.7268 14.7302 16.1088 15.4208 15.9207 15.6254C15.7326 15.83 15.5445 15.8556 15.222 15.7021C14.8996 15.5487 13.8606 15.225 12.6289 14.1804C11.6704 13.3675 11.0232 12.3635 10.8351 12.0566C10.647 11.7496 10.8151 11.5837 10.9765 11.4308C11.1215 11.2935 11.299 11.0728 11.4602 10.8937C11.6214 10.7147 11.6751 10.5868 11.7826 10.3822C11.8901 10.1776 11.8364 9.99852 11.7557 9.84506C11.6751 9.69161 11.0303 8.18255 10.7615 7.5687C10.4998 6.97086 10.234 7.05175 10.036 7.04239C9.84815 7.0335 9.63297 7.0316 9.41803 7.0316C9.20305 7.0316 8.85372 7.10834 8.55813 7.41525C8.26257 7.72219 7.4296 8.46392 7.4296 9.97295C7.4296 11.482 8.58502 12.9398 8.74625 13.1445C8.90746 13.3491 11.02 16.4459 14.2547 17.7739C15.024 18.0897 15.6247 18.2783 16.093 18.4197C16.8655 18.653 17.5684 18.6201 18.124 18.5412C18.7435 18.4532 20.0318 17.7995 20.3006 17.0833C20.5693 16.3671 20.5693 15.7533 20.4886 15.6254C20.4081 15.4975 20.1931 15.4208 19.8706 15.2673Z" fill="#212121"/>
</g>
<defs>
<clipPath id="clip0_42_30786">
<rect width="25.9207" height="24.7619" fill="white" transform="translate(0.972534 0.428558)"/>
</clipPath>
</defs>
</svg>
